<svg width="72" height="72" viewBox="0 0 72 72" fill="none" xmlns="http://www.w3.org/2000/svg">
<path d="M0 36C0 16.1178 16.1178 0 36 0C55.8823 0 72 16.1178 72 36C72 55.8823 55.8823 72 36 72C16.1178 72 0 55.8823 0 36Z" fill="#E74040"/>
<g clip-path="url(#clip0_139_119)">
<path d="M26.3483 52H45.6516C46.8002 52 47.7565 51.1215 47.7565 50.0418V26.6285C47.7565 25.5486 46.8002 24.6609 45.6516 24.6609H42.4695V26.4486C42.4741 26.759 42.2293 27.0157 41.9192 27.0261H30.0429C29.7266 27.0185 29.4711 26.7649 29.4608 26.4486V24.6609H26.3483C25.1997 24.6609 24.2434 25.5486 24.2434 26.6285V50.0418C24.2434 51.1215 25.1997 52 26.3483 52ZM30.6434 34.0522C30.6434 33.7448 30.8926 33.4956 31.1999 33.4956H34.0521V30.6435C34.0521 30.3361 34.3013 30.0869 34.6086 30.0869H37.3912C37.6986 30.0869 37.9478 30.3361 37.9478 30.6435V33.4956H40.7999C41.1073 33.4956 41.3565 33.7448 41.3565 34.0522V36.8348C41.3565 37.1421 41.1073 37.3913 40.7999 37.3913H37.9478V40.2435C37.9478 40.5508 37.6986 40.8 37.3912 40.8H34.6086C34.3013 40.8 34.0521 40.5508 34.0521 40.2435V37.3913H31.1999C30.8926 37.3913 30.6434 37.1421 30.6434 36.8348V34.0522ZM30.87 43.6522H41.1298C41.4374 43.6522 41.6863 43.9013 41.6863 44.2087C41.6863 44.516 41.4374 44.7652 41.1298 44.7652H30.87C30.5624 44.7652 30.3135 44.516 30.3135 44.2087C30.3135 43.9013 30.5624 43.6522 30.87 43.6522ZM28.7831 46.4348H43.2168C43.5244 46.4348 43.7733 46.684 43.7733 46.9913C43.7733 47.2986 43.5244 47.5478 43.2168 47.5478H28.7831C28.4755 47.5478 28.2266 47.2986 28.2266 46.9913C28.2266 46.684 28.4755 46.4348 28.7831 46.4348Z" fill="white"/>
<path d="M41.3566 22.1565H38.7522C38.4903 22.1563 38.2636 21.9734 38.2085 21.7171C37.9933 20.7226 37.0487 20 35.9623 20H35.9555C34.8982 19.9989 33.9745 20.7144 33.7115 21.7383C33.6482 21.9842 33.4264 22.1563 33.1723 22.1565H30.574V25.913H41.3566V22.1565Z" fill="white"/>
<path d="M35.1653 36.8348V39.687H36.8349V36.8348C36.8349 36.5275 37.084 36.2783 37.3914 36.2783H40.2435V34.6087H37.3914C37.084 34.6087 36.8349 34.3595 36.8349 34.0522V31.2H35.1653V34.0522C35.1653 34.3595 34.9161 34.6087 34.6088 34.6087H31.7566V36.2783H34.6088C34.9161 36.2783 35.1653 36.5275 35.1653 36.8348Z" fill="white"/>
</g>
<defs>
<clipPath id="clip0_139_119">
<rect width="32" height="32" fill="white" transform="translate(20 20)"/>
</clipPath>
</defs>
</svg>


