<svg width="56" height="49" viewBox="0 0 76 67" fill="none" xmlns="http://www.w3.org/2000/svg">
<path d="M38.5542 53.4025L25.4845 64.9244C24.9295 65.4137 24.19 65.6847 23.4023 65.6847C22.6163 65.6847 21.8769 65.4137 21.3218 64.9244L2.35632 48.2048C1.20805 47.1925 1.20805 45.5459 2.35632 44.5336L15.4243 33.0117L38.5542 53.4025Z" fill="#A7B6C4"/>
<path d="M48.7286 1.8656L46.7993 3.56641L71.9546 25.7428L73.8839 24.042L48.7286 1.8656Z" fill="#F97946"/>
<path d="M42.5557 51.6605L40.6248 53.3628L15.4692 31.1862L17.4002 29.4854L42.5557 51.6605Z" fill="#F97946"/>
<path d="M45.7422 4.49731L18.4565 28.5518L43.6119 50.7282L70.8975 26.6737L45.7422 4.49731Z" fill="#9B1818"/>
<path d="M76.0001 24.0415L40.6248 55.2276L39.6128 54.3339L26.5432 65.8559C25.6774 66.6191 24.5408 67 23.4025 67C22.2658 67 21.1292 66.6191 20.2634 65.8559L1.2979 49.1363C-0.431981 47.6098 -0.431981 45.1267 1.2979 43.6016L14.3675 32.0797L13.3539 31.1861L48.7291 0L76.0001 24.0415ZM71.9554 25.7423L73.8847 24.0415L48.7291 1.8649L46.7999 3.56572L71.9554 25.7423ZM43.6126 50.7287L70.8985 26.674L45.743 4.49743L18.4571 28.5521L43.6126 50.7287ZM40.6248 53.3627L42.5558 51.6604L17.4002 29.4853L15.4693 31.1861L40.6248 53.3627ZM25.4846 64.9241L38.5543 53.4022L15.4244 33.0114L2.35643 44.5334C1.20816 45.5456 1.20816 47.1923 2.35643 48.2045L21.322 64.9241C21.877 65.4134 22.6165 65.6845 23.4025 65.6845C24.1901 65.6845 24.9296 65.4134 25.4846 64.9241Z" fill="black"/>
</svg>
