<svg width="40" height="40" viewBox="0 0 512 512" fill="none" xmlns="http://www.w3.org/2000/svg">
<g clip-path="url(#clip0_232_34)">
<path d="M256 512C397.385 512 512 397.385 512 256C512 114.615 397.385 0 256 0C114.615 0 0 114.615 0 256C0 397.385 114.615 512 256 512Z" fill="#ECE5DD"/>
<path d="M256 512C397.385 512 512 397.385 512 256C512 114.615 397.385 0 256 0C114.615 0 0 114.615 0 256C0 397.385 114.615 512 256 512Z" fill="#ECE5DD"/>
<path d="M512 256C512 184.649 482.799 120.127 435.71 73.702L289.391 189.217L244.869 200.347L100.174 100.174L63.0261 87.791C58.0821 93.458 53.3911 99.35 48.9561 105.439L369.156 485.677C453.781 443.905 512 356.758 512 256Z" fill="#D9CBBD"/>
<path d="M512 256C512 199.307 493.558 146.93 462.365 104.508L444.661 118.4V429.026C486.471 383.461 512 322.715 512 256Z" fill="#AC2201"/>
<path d="M416.127 56.2729L262.325 172.605C258.583 175.435 253.416 175.435 249.674 172.605L95.873 56.2729C78.156 70.4949 62.374 87.0249 48.978 105.408L249.527 262.759C253.327 265.741 258.672 265.741 262.472 262.759L463.021 105.408C449.626 87.0239 433.844 70.4959 416.127 56.2729Z" fill="#CD2900"/>
<path d="M67.339 429.026V118.4L49.635 104.508C18.442 146.93 0 199.307 0 256C0 322.715 25.529 383.461 67.339 429.026Z" fill="#AC2201"/>
</g>
<defs>
<clipPath id="clip0_232_34">
<rect width="512" height="512" fill="white"/>
</clipPath>
</defs>
</svg>
