<svg width="20" height="19" viewBox="0 0 20 19" fill="none" xmlns="http://www.w3.org/2000/svg">
<g clip-path="url(#clip0_41_417)">
<path d="M15.4152 10.7949V4.63047C15.4152 3.78286 14.7217 3.08936 13.8741 3.08936H3.08628C2.23867 3.08936 1.54517 3.78286 1.54517 4.63047V10.7949C1.54517 11.6426 2.23867 12.3361 3.08628 12.3361H13.8741C14.7217 12.3361 15.4152 11.6426 15.4152 10.7949ZM13.8741 10.7949H3.08628V4.63047H13.8741V10.7949ZM8.4802 5.40103C7.20107 5.40103 6.16852 6.43358 6.16852 7.71271C6.16852 8.99184 7.20107 10.0244 8.4802 10.0244C9.75933 10.0244 10.7919 8.99184 10.7919 7.71271C10.7919 6.43358 9.75933 5.40103 8.4802 5.40103ZM18.4975 5.40103V13.8772C18.4975 14.7248 17.804 15.4183 16.9563 15.4183H3.85684C3.85684 14.6477 3.85684 14.7248 3.85684 13.8772H16.9563V5.40103C17.804 5.40103 17.7269 5.40103 18.4975 5.40103Z" fill="white"/>
</g>
<defs>
<clipPath id="clip0_41_417">
<rect width="18.4934" height="18.4934" fill="white" transform="translate(0.774658 0.00650024)"/>
</clipPath>
</defs>
</svg>
