<svg width="20" height="20" viewBox="0 0 20 20" fill="none" xmlns="http://www.w3.org/2000/svg">
<g clip-path="url(#clip0_41_423)">
<path d="M15.4151 3.04523H14.6446V1.50411H13.1035V3.04523H6.93898V1.50411H5.39786V3.04523H4.6273C3.77968 3.04523 3.08618 3.73873 3.08618 4.58635V15.3742C3.08618 16.2218 3.77968 16.9153 4.6273 16.9153H15.4151C16.2627 16.9153 16.9562 16.2218 16.9562 15.3742V4.58635C16.9562 3.73873 16.2627 3.04523 15.4151 3.04523ZM15.4151 15.3742H4.6273V7.66858H15.4151V15.3742ZM4.6273 6.12746V4.58635H15.4151V6.12746H4.6273ZM8.91161 14.1875L13.481 9.6181L12.6642 8.8013L8.91161 12.5539L7.28573 10.928L6.46894 11.7448L8.91161 14.1875Z" fill="white"/>
</g>
<defs>
<clipPath id="clip0_41_423">
<rect width="18.4934" height="18.4934" fill="white" transform="translate(0.774658 0.734068)"/>
</clipPath>
</defs>
</svg>
