<svg width="20" height="20" viewBox="0 0 21 20" fill="none" xmlns="http://www.w3.org/2000/svg">
<path d="M17.0954 9.65527C16.8605 9.65527 16.6699 9.80941 16.6699 10.0001V12.0691C16.6699 14.7311 13.9976 16.8967 10.7125 16.8967C7.42742 16.8967 4.75511 14.7311 4.75511 12.0691V10.0001C4.75511 9.80941 4.56447 9.65527 4.32958 9.65527C4.09469 9.65527 3.90405 9.80941 3.90405 10.0001V12.0691C3.90405 14.9949 6.73126 17.3894 10.287 17.5687V19.3104H8.15933C7.92444 19.3104 7.7338 19.4646 7.7338 19.6553C7.7338 19.846 7.92444 20.0001 8.15933 20.0001H13.2657C13.5005 20.0001 13.6912 19.846 13.6912 19.6553C13.6912 19.4646 13.5005 19.3104 13.2657 19.3104H11.138V17.5687C14.6937 17.3894 17.5209 14.9946 17.5209 12.0691V10.0001C17.5209 9.80941 17.3303 9.65527 17.0954 9.65527Z" fill="white"/>
<path d="M10.7125 15.8621C13.2934 15.8621 15.3933 14.1603 15.3933 12.069V3.7931C15.3933 1.70172 13.2934 0 10.7125 0C8.13172 0 6.03174 1.70172 6.03174 3.7931V12.069C6.03174 14.1603 8.13172 15.8621 10.7125 15.8621ZM6.88279 3.7931C6.88279 2.08172 8.60107 0.689655 10.7125 0.689655C12.824 0.689655 14.5423 2.08172 14.5423 3.7931V12.069C14.5423 13.7803 12.824 15.1724 10.7125 15.1724C8.60107 15.1724 6.88279 13.7803 6.88279 12.069V3.7931Z" fill="white"/>
<path d="M20.3751 1.48027C20.2087 1.34544 19.9398 1.34544 19.7734 1.48027L15.9436 4.58372C15.7773 4.71855 15.7773 4.93648 15.9436 5.07131C16.0266 5.13855 16.1355 5.17234 16.2445 5.17234C16.3534 5.17234 16.4624 5.13855 16.5453 5.07131L20.3751 1.96786C20.5415 1.83303 20.5415 1.6151 20.3751 1.48027Z" fill="white"/>
<path d="M13.992 7.14047C14.1584 7.00564 14.1584 6.78771 13.992 6.65288C13.8256 6.51805 13.5567 6.51805 13.3903 6.65288L7.43289 11.4805C7.26651 11.6153 7.26651 11.8332 7.43289 11.9681C7.51587 12.0353 7.6248 12.0691 7.73374 12.0691C7.84267 12.0691 7.95161 12.0353 8.03459 11.9681L13.992 7.14047Z" fill="white"/>
<path d="M3.60323 14.5838L0.624542 16.9976C0.458161 17.1324 0.458161 17.3503 0.624542 17.4852C0.70752 17.5524 0.816455 17.5862 0.92539 17.5862C1.03432 17.5862 1.14326 17.5524 1.22624 17.4852L4.20493 15.0714C4.37131 14.9365 4.37131 14.7186 4.20493 14.5838C4.03855 14.449 3.76961 14.449 3.60323 14.5838Z" fill="white"/>
</svg>
