<svg width="40" height="40" viewBox="0 0 216 216" fill="none" xmlns="http://www.w3.org/2000/svg">
<path d="M108 0C48.353 0 0 48.353 0 108C0 167.647 48.353 216 108 216C167.647 216 216 167.647 216 108C216 48.353 167.647 0 108 0ZM123.667 73H164.962C165.318 73 165.103 72.975 165.445 73.029L123.667 108.458V73ZM115.667 161.552C115.667 165.17 112.533 167.861 108.999 167.086L49.18 153.982C46.58 153.412 44.666 151.109 44.666 148.448V64.679C44.666 61.919 46.783 59.56 49.504 59.095L109.161 48.863C112.622 48.27 115.666 50.936 115.666 54.447L115.667 161.552ZM170.667 83.548V137.325C170.667 141.009 168.646 143.001 164.962 143.001H123.667V121.126C123.667 121.05 170.355 80.775 170.355 80.775C170.742 81.619 170.667 82.557 170.667 83.548ZM89.532 83.583C82.063 79.681 73.384 80.808 66.849 85.858C60.557 90.718 56.636 99.476 56.636 108.001C56.636 116.526 60.557 125.284 66.849 130.144C69.747 132.383 73.045 133.844 76.478 134.445C80.813 135.204 85.372 134.591 89.532 132.418C97.474 128.271 102.386 119.251 102.386 108.001C102.386 96.75 97.474 87.732 89.532 83.583ZM83.452 120.932C79.646 123.435 74.451 123.33 70.536 120.804C66.266 118.048 64.092 112.297 64.092 108.002C64.092 103.707 66.266 97.956 70.536 95.2C72.326 94.046 74.379 93.399 76.446 93.274C78.906 93.125 81.389 93.714 83.453 95.07C87.06 97.44 88.93 101.808 88.93 108.002C88.929 114.194 87.06 118.562 83.452 120.932Z" fill="#3275CD"/>
</svg>
