<svg width="20" height="20" viewBox="0 0 30 30" fill="none" xmlns="http://www.w3.org/2000/svg">
<path d="M15 18.75C15.9946 18.75 16.9484 18.3549 17.6516 17.6516C18.3549 16.9484 18.75 15.9946 18.75 15C18.75 14.0054 18.3549 13.0516 17.6516 12.3483C16.9484 11.6451 15.9946 11.25 15 11.25C14.0054 11.25 13.0516 11.6451 12.3483 12.3483C11.6451 13.0516 11.25 14.0054 11.25 15C11.25 15.9946 11.6451 16.9484 12.3483 17.6516C13.0516 18.3549 14.0054 18.75 15 18.75Z" fill="#FF0000"/>
<path fill-rule="evenodd" clip-rule="evenodd" d="M16.1249 1.87505C19.1249 2.06255 21.9374 3.56255 23.9999 5.62505C26.4374 8.25005 27.7499 11.4375 27.7499 15.1875C27.7499 18.1875 26.6249 21 24.7499 23.4375C22.8749 25.6875 20.2499 27.375 17.2499 27.9375C14.2499 28.5 11.2499 28.125 8.62492 26.625C5.99992 25.125 3.93742 22.875 2.81242 20.0625C1.68742 17.25 1.49992 14.0625 2.43742 11.25C3.37492 8.25005 5.06242 5.81255 7.68742 4.12505C10.1249 2.43755 13.1249 1.68755 16.1249 1.87505ZM17.0624 26.0625C19.4999 25.5 21.7499 24.1875 23.4374 22.125C24.9374 20.0625 25.8749 17.625 25.6874 15C25.6874 12 24.5624 9.00005 22.4999 6.93755C20.6249 5.06255 18.3749 3.93755 15.7499 3.75005C13.3124 3.56255 10.6874 4.12505 8.62492 5.62505C6.56242 7.12505 5.06242 9.18755 4.31242 11.8125C3.56242 14.25 3.56242 16.875 4.68742 19.3125C5.81242 21.75 7.49992 23.625 9.74992 24.9375C11.9999 26.25 14.6249 26.625 17.0624 26.0625Z" fill="white"/>
</svg>
