<svg width="76" height="69" viewBox="0 0 76 69" fill="none" xmlns="http://www.w3.org/2000/svg">
<path d="M55.1808 66.7984V42.9644C53.3215 43.6541 51.3011 44.0137 49.2405 44.0137C45.4405 44.0137 41.8784 42.8069 39.2127 40.6943V50.6833C39.2127 51.2916 38.6699 51.7844 37.9999 51.7844C37.3302 51.7844 36.7872 51.2916 36.7872 50.6833V40.6943C34.1217 42.8071 30.5595 44.0137 26.7594 44.0137C24.6988 44.0137 22.6782 43.6541 20.8191 42.9644V66.7984H36.7872V55.0876C36.7872 54.4794 37.3302 53.9865 37.9999 53.9865C38.6699 53.9865 39.2127 54.4794 39.2127 55.0876V66.7984H55.1808Z" fill="#FF0000"/>
<path d="M32.155 16.6995H43.8448L37.9999 3.96387L32.155 16.6995Z" fill="#FF0000"/>
<path d="M26.7593 41.811C30.9502 41.811 34.781 40.0901 37.0069 37.2077C37.2339 36.9137 37.6045 36.7388 37.9999 36.7388C38.3952 36.7388 38.7659 36.9137 38.9929 37.2077C41.2189 40.0902 45.0496 41.811 49.2404 41.811C51.208 41.811 53.1281 41.4241 54.8543 40.6885L44.8554 18.9014H31.1444L21.1455 40.6883C22.8718 41.4241 24.7917 41.811 26.7593 41.811Z" fill="#FFCC75"/>
<path d="M57.6062 41.1757C57.6062 41.1727 57.6058 41.1698 57.6057 41.1669C57.6039 41.0258 57.5728 40.8865 57.513 40.7562L46.7851 17.3807C46.7826 17.3755 46.7804 17.3704 46.7779 17.3652L39.1194 0.677521C38.9312 0.267191 38.4894 0 37.9999 0C37.5103 0 37.0689 0.267191 36.8805 0.677521L29.2213 17.3666C29.2193 17.3705 29.2176 17.3748 29.2156 17.3789L18.4869 40.7562C18.4269 40.8869 18.3958 41.0267 18.3942 41.168C18.3936 41.1798 18.3936 67.8989 18.3936 67.8989C18.3936 68.5072 18.9366 69 19.6063 69H56.3936C57.0635 69 57.6063 68.5072 57.6063 67.8989C57.6063 67.8989 57.6063 41.1798 57.6062 41.1757ZM37.9999 53.986C37.3302 53.986 36.7872 54.4789 36.7872 55.0871V66.7979H20.8191V42.964C22.6783 43.6537 24.6988 44.0132 26.7594 44.0132C30.5595 44.0132 34.1217 42.8064 36.7872 40.6939V50.6828C36.7872 51.2911 37.3302 51.7839 37.9999 51.7839C38.6699 51.7839 39.2127 51.2911 39.2127 50.6828V40.6939C41.8784 42.8066 45.4405 44.0132 49.2405 44.0132C51.3011 44.0132 53.3217 43.6537 55.1808 42.964V66.7979H39.2127V55.0871C39.2127 54.479 38.6699 53.986 37.9999 53.986ZM31.1444 18.9016H44.8555L54.8543 40.6886C53.128 41.4244 51.2081 41.8111 49.2405 41.8111C45.0497 41.8111 41.2189 40.0902 38.993 37.2077C38.7661 36.9138 38.3955 36.7388 37.9999 36.7388C37.6044 36.7388 37.234 36.9138 37.0069 37.2077C34.7811 40.0903 30.9502 41.8111 26.7594 41.8111C24.7918 41.8111 22.8719 41.4242 21.1456 40.6886L31.1444 18.9016ZM32.1551 16.6995L37.9999 3.96383L43.8448 16.6995H32.1551Z" fill="#082947"/>
</svg>
