<svg width="20" height="19" viewBox="0 0 20 19" fill="none" xmlns="http://www.w3.org/2000/svg">
<g clip-path="url(#clip0_41_428)">
<path d="M15.7467 10.152C15.7775 9.9054 15.8006 9.65882 15.8006 9.39683C15.8006 9.13484 15.7775 8.88826 15.7467 8.64168L17.3726 7.37026C17.519 7.25468 17.5575 7.04662 17.465 6.8771L15.9239 4.21097C15.8546 4.08768 15.7236 4.01833 15.5849 4.01833C15.5386 4.01833 15.4924 4.02603 15.4539 4.04144L13.5352 4.812C13.1345 4.50378 12.703 4.2495 12.2329 4.05686L11.9401 2.01487C11.917 1.82994 11.7552 1.69124 11.5626 1.69124H8.48032C8.28768 1.69124 8.12586 1.82994 8.10275 2.01487L7.80994 4.05686C7.33989 4.2495 6.90838 4.51149 6.50769 4.812L4.589 4.04144C4.54276 4.02603 4.49653 4.01833 4.4503 4.01833C4.3193 4.01833 4.18831 4.08768 4.11896 4.21097L2.57784 6.8771C2.47767 7.04662 2.5239 7.25468 2.67031 7.37026L4.29619 8.64168C4.26536 8.88826 4.24225 9.14255 4.24225 9.39683C4.24225 9.65111 4.26536 9.9054 4.29619 10.152L2.67031 11.4234C2.5239 11.539 2.48537 11.747 2.57784 11.9166L4.11896 14.5827C4.18831 14.706 4.3193 14.7753 4.458 14.7753C4.50424 14.7753 4.55047 14.7676 4.589 14.7522L6.50769 13.9817C6.90838 14.2899 7.33989 14.5442 7.80994 14.7368L8.10275 16.7788C8.12586 16.9637 8.28768 17.1024 8.48032 17.1024H11.5626C11.7552 17.1024 11.917 16.9637 11.9401 16.7788L12.2329 14.7368C12.703 14.5442 13.1345 14.2822 13.5352 13.9817L15.4539 14.7522C15.5001 14.7676 15.5463 14.7753 15.5926 14.7753C15.7236 14.7753 15.8546 14.706 15.9239 14.5827L17.465 11.9166C17.5575 11.747 17.519 11.539 17.3726 11.4234L15.7467 10.152ZM14.221 8.83432C14.2518 9.0732 14.2595 9.23501 14.2595 9.39683C14.2595 9.55865 14.2441 9.72817 14.221 9.95934L14.1131 10.8301L14.7989 11.3695L15.6311 12.0167L15.0917 12.9491L14.1131 12.5561L13.3117 12.2325L12.6182 12.7565C12.2869 13.003 11.971 13.188 11.655 13.319L10.8382 13.6503L10.7149 14.521L10.5608 15.5613H9.48205L9.33564 14.521L9.21235 13.6503L8.39556 13.319C8.06422 13.1803 7.756 13.003 7.44777 12.7719L6.74656 12.2325L5.92977 12.5638L4.95116 12.9568L4.41177 12.0244L5.24397 11.3772L5.92977 10.8378L5.82189 9.96704C5.79878 9.72817 5.78336 9.55094 5.78336 9.39683C5.78336 9.24272 5.79878 9.06549 5.82189 8.83432L5.92977 7.96359L5.24397 7.4242L4.41177 6.77693L4.95116 5.84455L5.92977 6.23754L6.73115 6.56117L7.42466 6.03719C7.756 5.79061 8.07193 5.60568 8.38785 5.47468L9.20465 5.14334L9.32794 4.27261L9.48205 3.23236H10.5531L10.6995 4.27261L10.8228 5.14334L11.6396 5.47468C11.971 5.61338 12.2792 5.79061 12.5874 6.02178L13.2886 6.56117L14.1054 6.22983L15.084 5.83685L15.6234 6.76922L14.7989 7.4242L14.1131 7.96359L14.221 8.83432ZM10.0214 6.31459C8.3185 6.31459 6.9392 7.69389 6.9392 9.39683C6.9392 11.0998 8.3185 12.4791 10.0214 12.4791C11.7244 12.4791 13.1037 11.0998 13.1037 9.39683C13.1037 7.69389 11.7244 6.31459 10.0214 6.31459ZM10.0214 10.9379C9.17383 10.9379 8.48032 10.2444 8.48032 9.39683C8.48032 8.54922 9.17383 7.85571 10.0214 7.85571C10.8691 7.85571 11.5626 8.54922 11.5626 9.39683C11.5626 10.2444 10.8691 10.9379 10.0214 10.9379Z" fill="white"/>
</g>
<defs>
<clipPath id="clip0_41_428">
<rect width="18.4934" height="18.4934" fill="white" transform="translate(0.774658 0.149696)"/>
</clipPath>
</defs>
</svg>
