<svg width="20" height="19" viewBox="0 0 20 19" fill="none" xmlns="http://www.w3.org/2000/svg">
<g clip-path="url(#clip0_41_406)">
<path d="M13.6196 10.3979C14.6753 11.1145 15.415 12.0854 15.415 13.3799V15.6916H18.4973V13.3799C18.4973 11.7001 15.7464 10.7061 13.6196 10.3979Z" fill="white"/>
<path d="M12.3329 9.52719C14.0359 9.52719 15.4152 8.14789 15.4152 6.44495C15.4152 4.74202 14.0359 3.36272 12.3329 3.36272C11.9708 3.36272 11.6317 3.43977 11.3081 3.54765C11.9477 4.34133 12.3329 5.35076 12.3329 6.44495C12.3329 7.53915 11.9477 8.54858 11.3081 9.34226C11.6317 9.45013 11.9708 9.52719 12.3329 9.52719Z" fill="white"/>
<path d="M7.70968 9.52719C9.41261 9.52719 10.7919 8.14789 10.7919 6.44495C10.7919 4.74202 9.41261 3.36272 7.70968 3.36272C6.00674 3.36272 4.62744 4.74202 4.62744 6.44495C4.62744 8.14789 6.00674 9.52719 7.70968 9.52719ZM7.70968 4.90384C8.55729 4.90384 9.2508 5.59734 9.2508 6.44495C9.2508 7.29257 8.55729 7.98607 7.70968 7.98607C6.86206 7.98607 6.16856 7.29257 6.16856 6.44495C6.16856 5.59734 6.86206 4.90384 7.70968 4.90384Z" fill="white"/>
<path d="M7.70964 10.2979C5.65225 10.2979 1.54517 11.3305 1.54517 13.3802V15.6918H13.8741V13.3802C13.8741 11.3305 9.76703 10.2979 7.70964 10.2979ZM12.333 14.1507H3.08628V13.3879C3.2404 12.8331 5.62913 11.839 7.70964 11.839C9.79015 11.839 12.1789 12.8331 12.333 13.3802V14.1507Z" fill="white"/>
</g>
<defs>
<clipPath id="clip0_41_406">
<rect width="18.4934" height="18.4934" fill="white" transform="translate(0.774658 0.28064)"/>
</clipPath>
</defs>
</svg>
