<svg width="206" height="28" viewBox="0 0 206 28" fill="none" xmlns="http://www.w3.org/2000/svg">
<path d="M47.288 21.992V26H45.248C41.808 26 40.088 24.296 40.088 20.888V16.448H38.432V12.536H40.088V9.272H44.816V12.536H47.264V16.448H44.816V20.96C44.816 21.328 44.896 21.592 45.056 21.752C45.232 21.912 45.52 21.992 45.92 21.992H47.288ZM58.3016 12.416C59.8376 12.416 61.0536 12.936 61.9496 13.976C62.8616 15 63.3176 16.392 63.3176 18.152V26H58.6136V18.776C58.6136 18.008 58.4136 17.408 58.0136 16.976C57.6136 16.528 57.0776 16.304 56.4056 16.304C55.7016 16.304 55.1496 16.528 54.7496 16.976C54.3496 17.408 54.1496 18.008 54.1496 18.776V26H49.4456V8.24H54.1496V14.456C54.5656 13.848 55.1256 13.36 55.8296 12.992C56.5496 12.608 57.3736 12.416 58.3016 12.416ZM78.7627 19.112C78.7627 19.48 78.7387 19.848 78.6907 20.216H69.7867C69.8347 20.952 70.0347 21.504 70.3867 21.872C70.7547 22.224 71.2187 22.4 71.7787 22.4C72.5627 22.4 73.1227 22.048 73.4587 21.344H78.4747C78.2667 22.272 77.8587 23.104 77.2507 23.84C76.6587 24.56 75.9067 25.128 74.9947 25.544C74.0827 25.96 73.0747 26.168 71.9707 26.168C70.6427 26.168 69.4587 25.888 68.4187 25.328C67.3947 24.768 66.5867 23.968 65.9947 22.928C65.4187 21.888 65.1307 20.664 65.1307 19.256C65.1307 17.848 65.4187 16.632 65.9947 15.608C66.5707 14.568 67.3707 13.768 68.3947 13.208C69.4347 12.648 70.6267 12.368 71.9707 12.368C73.2987 12.368 74.4747 12.64 75.4987 13.184C76.5227 13.728 77.3227 14.512 77.8987 15.536C78.4747 16.544 78.7627 17.736 78.7627 19.112ZM73.9627 17.936C73.9627 17.36 73.7707 16.912 73.3867 16.592C73.0027 16.256 72.5227 16.088 71.9467 16.088C71.3707 16.088 70.8987 16.248 70.5307 16.568C70.1627 16.872 69.9227 17.328 69.8107 17.936H73.9627ZM100.44 9.08V26H95.7358V16.664L92.5438 26H88.6078L85.3918 16.592V26H80.6878V9.08H86.3758L90.6238 20.072L94.7758 9.08H100.44ZM115.981 19.112C115.981 19.48 115.957 19.848 115.909 20.216H107.005C107.053 20.952 107.253 21.504 107.605 21.872C107.973 22.224 108.437 22.4 108.997 22.4C109.781 22.4 110.341 22.048 110.677 21.344H115.693C115.485 22.272 115.077 23.104 114.469 23.84C113.877 24.56 113.125 25.128 112.213 25.544C111.301 25.96 110.293 26.168 109.189 26.168C107.861 26.168 106.677 25.888 105.637 25.328C104.613 24.768 103.805 23.968 103.213 22.928C102.637 21.888 102.349 20.664 102.349 19.256C102.349 17.848 102.637 16.632 103.213 15.608C103.789 14.568 104.589 13.768 105.613 13.208C106.653 12.648 107.845 12.368 109.189 12.368C110.517 12.368 111.693 12.64 112.717 13.184C113.741 13.728 114.541 14.512 115.117 15.536C115.693 16.544 115.981 17.736 115.981 19.112ZM111.181 17.936C111.181 17.36 110.989 16.912 110.605 16.592C110.221 16.256 109.741 16.088 109.165 16.088C108.589 16.088 108.117 16.248 107.749 16.568C107.381 16.872 107.141 17.328 107.029 17.936H111.181ZM117.139 19.256C117.139 17.864 117.387 16.648 117.883 15.608C118.395 14.568 119.091 13.768 119.971 13.208C120.851 12.648 121.827 12.368 122.898 12.368C123.763 12.368 124.531 12.552 125.203 12.92C125.891 13.272 126.427 13.76 126.811 14.384V8.24H131.539V26H126.811V24.128C126.443 24.752 125.923 25.248 125.251 25.616C124.579 25.984 123.787 26.168 122.875 26.168C121.803 26.168 120.827 25.888 119.947 25.328C119.083 24.768 118.395 23.968 117.883 22.928C117.387 21.872 117.139 20.648 117.139 19.256ZM126.835 19.256C126.835 18.392 126.595 17.712 126.115 17.216C125.651 16.72 125.075 16.472 124.387 16.472C123.683 16.472 123.099 16.72 122.635 17.216C122.171 17.696 121.939 18.376 121.939 19.256C121.939 20.12 122.171 20.808 122.635 21.32C123.099 21.816 123.683 22.064 124.387 22.064C125.075 22.064 125.651 21.816 126.115 21.32C126.595 20.824 126.835 20.136 126.835 19.256ZM149.363 9.08V26H144.659V19.208H138.923V26H134.219V9.08H138.923V15.44H144.659V9.08H149.363ZM164.919 19.112C164.919 19.48 164.895 19.848 164.847 20.216H155.943C155.991 20.952 156.191 21.504 156.543 21.872C156.911 22.224 157.375 22.4 157.935 22.4C158.719 22.4 159.279 22.048 159.615 21.344H164.631C164.423 22.272 164.015 23.104 163.407 23.84C162.815 24.56 162.063 25.128 161.151 25.544C160.239 25.96 159.231 26.168 158.127 26.168C156.799 26.168 155.615 25.888 154.575 25.328C153.551 24.768 152.743 23.968 152.151 22.928C151.575 21.888 151.287 20.664 151.287 19.256C151.287 17.848 151.575 16.632 152.151 15.608C152.727 14.568 153.527 13.768 154.551 13.208C155.591 12.648 156.783 12.368 158.127 12.368C159.455 12.368 160.631 12.64 161.655 13.184C162.679 13.728 163.479 14.512 164.055 15.536C164.631 16.544 164.919 17.736 164.919 19.112ZM160.119 17.936C160.119 17.36 159.927 16.912 159.543 16.592C159.159 16.256 158.679 16.088 158.103 16.088C157.527 16.088 157.055 16.248 156.687 16.568C156.319 16.872 156.079 17.328 155.967 17.936H160.119ZM166.076 19.256C166.076 17.864 166.324 16.648 166.82 15.608C167.332 14.568 168.02 13.768 168.884 13.208C169.764 12.648 170.74 12.368 171.812 12.368C172.74 12.368 173.54 12.552 174.212 12.92C174.884 13.288 175.404 13.784 175.772 14.408V12.536H180.476V26H175.772V24.128C175.404 24.752 174.876 25.248 174.188 25.616C173.516 25.984 172.724 26.168 171.812 26.168C170.74 26.168 169.764 25.888 168.884 25.328C168.02 24.768 167.332 23.968 166.82 22.928C166.324 21.872 166.076 20.648 166.076 19.256ZM175.772 19.256C175.772 18.392 175.532 17.712 175.052 17.216C174.588 16.72 174.012 16.472 173.324 16.472C172.62 16.472 172.036 16.72 171.572 17.216C171.108 17.696 170.876 18.376 170.876 19.256C170.876 20.12 171.108 20.808 171.572 21.32C172.036 21.816 172.62 22.064 173.324 22.064C174.012 22.064 174.588 21.816 175.052 21.32C175.532 20.824 175.772 20.136 175.772 19.256ZM182.389 19.256C182.389 17.864 182.637 16.648 183.133 15.608C183.645 14.568 184.341 13.768 185.221 13.208C186.101 12.648 187.077 12.368 188.148 12.368C189.013 12.368 189.781 12.552 190.453 12.92C191.141 13.272 191.677 13.76 192.061 14.384V8.24H196.789V26H192.061V24.128C191.693 24.752 191.173 25.248 190.501 25.616C189.829 25.984 189.037 26.168 188.125 26.168C187.053 26.168 186.077 25.888 185.197 25.328C184.333 24.768 183.645 23.968 183.133 22.928C182.637 21.872 182.389 20.648 182.389 19.256ZM192.085 19.256C192.085 18.392 191.845 17.712 191.365 17.216C190.901 16.72 190.325 16.472 189.637 16.472C188.933 16.472 188.349 16.72 187.885 17.216C187.421 17.696 187.189 18.376 187.189 19.256C187.189 20.12 187.421 20.808 187.885 21.32C188.349 21.816 188.933 22.064 189.637 22.064C190.325 22.064 190.901 21.816 191.365 21.32C191.845 20.824 192.085 20.136 192.085 19.256Z" fill="white"/>
<ellipse cx="11.1731" cy="13.585" rx="11.1731" ry="10.585" fill="url(#paint0_radial_139_128)"/>
<circle cx="17.936" cy="20.936" r="4.41044" fill="url(#paint1_radial_139_128)"/>
<defs>
<radialGradient id="paint0_radial_139_128" cx="0" cy="0" r="1" gradientUnits="userSpaceOnUse" gradientTransform="translate(-2.14176e-07 6.38722) rotate(57.8586) scale(21.0016 21.5253)">
<stop offset="0.697917" stop-color="#FF0000"/>
<stop offset="1" stop-color="#5243FF"/>
</radialGradient>
<radialGradient id="paint1_radial_139_128" cx="0" cy="0" r="1" gradientUnits="userSpaceOnUse" gradientTransform="translate(13.5255 16.5256) rotate(63.4349) scale(9.86204)">
<stop offset="0.221875" stop-color="#EF0606"/>
<stop offset="1" stop-color="#B00101"/>
</radialGradient>
</defs>
</svg>
