<svg width="20" height="20" viewBox="0 0 31 30" fill="none" xmlns="http://www.w3.org/2000/svg">
<path d="M16.4487 0.375246C16.2039 0.13294 15.8189 0 15.434 0C15.0898 0 14.6648 0.13294 14.42 0.374591L6.81474 7.89326C6.44115 8.26195 6.33107 8.81532 6.53655 9.29404C6.74069 9.77276 7.21835 10.0845 7.74738 10.0838L10.2291 10.0642L10.1931 20.7308C10.1971 21.7872 11.071 22.6424 12.1477 22.6424H18.7223C19.797 22.6424 20.6716 21.7872 20.6756 20.7308L20.6403 10.0668L23.1213 10.0845C23.6503 10.0858 24.13 9.77407 24.3321 9.2947C24.5376 8.81663 24.4282 8.26195 24.0539 7.89391L16.4487 0.375246Z" fill="white"/>
<path d="M28.4543 12.6857C27.3716 12.6857 26.4883 13.5469 26.4883 14.6097V25.3445C26.4883 25.7885 26.1401 26.1415 25.6858 26.1415H5.12359C4.66995 26.1415 4.29702 25.7885 4.29702 25.3445V14.6091C4.29702 13.5469 3.44177 12.6851 2.35902 12.6851C1.27694 12.6851 0.421021 13.5462 0.421021 14.6091V25.3439C0.421021 27.9097 2.50979 30.0001 5.12426 30.0001H25.6858C28.3009 30.0001 30.421 27.9097 30.421 25.3439V14.6091C30.4204 13.5469 29.5357 12.6857 28.4543 12.6857Z" fill="white"/>
</svg>
